# xmcd
#
# Track frame offsets: 
#        150
#        10245
#        20455
#        30060
#        42472
#        54052
#        65737
#        76755
#        86667
#        98812
#        111077
#        122907
#        133310
#        145690
#        158325
#        172205
#        186230
#        196555
#        208757
#        220617
#        230580
#        241427
#        255880
#        269250
#        280192
#        291340
#        303262
#        313435
#
# Disc length: 4371 seconds
#
# Revision: 2
# Processed by: cddbd v1.5.2PL0 Copyright (c) Steve Scherf et al.
# Submitted via: ExactAudioCopy v1.1
#
DISCID=8611111c
DTITLE=Various Artist - OKeh Rhythm and Blues
DYEAR=1989
DGENRE=R&B
TTITLE0=Smiley Lewis - I'm Coming Down With The Blues (mono)
TTITLE1=Smiley Lewis - Tore Up (mono)
TTITLE2=Smiley Lewis - Lawdy Miss Mary (mono)
TTITLE3=Big Maybelle - Whole Lotta Shakin' Goin' On (mono)
TTITLE4=Big Maybelle - Stay Away From My Sam (mono)
TTITLE5=Big Maybelle - New Kind Of Mambo (mono)
TTITLE6=Screamin' Jay Hawkins - I Put A Spell On You (mono)
TTITLE7=Titus Turner - Big Mary's (mono)
TTITLE8=Titus Turner - Christmas Morning (mono)
TTITLE9=Titus Turner - Don't Take Everybody To Be Your Friend (mono)
TTITLE10=Larry Darnell - What More Do You Want (mono)
TTITLE11=The Ravens - Gotta Find My Baby (mono)
TTITLE12=The Ravens - Midnight Blues (mono)
TTITLE13=The Ravens - My Baby's Gone (mono)
TTITLE14=Johnnie Ray - Cry (mono)
TTITLE15=The Sandmen - Somebody To Love (mono)
TTITLE16=The Marquees - Hey Little Schoolgirl (mono)
TTITLE17=Billy Stewart - Baby, You're My Only Love (mono)
TTITLE18=The Schoolboys - Please, Say You Want Me (mono)
TTITLE19=The Schoolboys - Ding-A-Ling Coo Coo Mop (mono)
TTITLE20=The Sheppards - Pretend Your Still Mine (mono)
TTITLE21=The Treniers - Say Hey (The Willie Mays Song) (mono)
TTITLE22=Paul Gayten and His Orchestra featuring LaVerne Smith - Don't W
TTITLE22=orry Me (mono)
TTITLE23=Paul Gayten and His Orchestra - It Ain't Nothin' Happening (mon
TTITLE23=o)
TTITLE24=Little Joe and The Thrillers - Peanuts (mono)
TTITLE25=Doc Bagby - Dumplin's (mono)
TTITLE26=Red Saunders and His Orchestra featuring Dolores Hawkins and The 
TTITLE26=Hambone Kids - Hambone (mono)
TTITLE27=Little Richard - Get Down With It (mono)
EXTD=
EXTT0=
EXTT1=
EXTT2=
EXTT3=
EXTT4=
EXTT5=
EXTT6=
EXTT7=
EXTT8=
EXTT9=
EXTT10=
EXTT11=
EXTT12=
EXTT13=
EXTT14=
EXTT15=
EXTT16=
EXTT17=
EXTT18=
EXTT19=
EXTT20=
EXTT21=
EXTT22=
EXTT23=
EXTT24=
EXTT25=
EXTT26=
EXTT27=
PLAYORDER=
